<?xml version="1.0" encoding="utf-8"?>
<!-- Generator: Adobe Illustrator 27.1.1, SVG Export Plug-In . SVG Version: 6.00 Build 0)  -->
<svg version="1.1" xmlns="http://www.w3.org/2000/svg" xmlns:xlink="http://www.w3.org/1999/xlink" x="0px" y="0px"
	 viewBox="0 0 42 42" style="enable-background:new 0 0 42 42;" xml:space="preserve">
<style type="text/css">
	.st0{display:none;}
	.st1{display:inline;fill:url(#SVGID_1_);}
	.st2{display:inline;fill:url(#SVGID_00000061431940170279509460000002267551038655398820_);}
	.st3{display:inline;fill:url(#SVGID_00000052819368565185003740000006665627589531937664_);}
</style>
<g id="Layer_1" class="st0">
	<linearGradient id="SVGID_1_" gradientUnits="userSpaceOnUse" x1="28.5625" y1="6.2575" x2="35.6275" y2="13.3225">
		<stop  offset="6.731818e-07" style="stop-color:#FBB022"/>
		<stop  offset="0.65" style="stop-color:#F48E1D"/>
		<stop  offset="1" style="stop-color:#EC6E1B"/>
	</linearGradient>
	<path class="st1" d="M36.97,9.91c0,0.66-0.13,1.3-0.38,1.92c-0.26,0.61-0.62,1.15-1.09,1.62l-3.27,3.27l-7.07-7.06l3.28-3.28
		c0.47-0.47,1.01-0.84,1.61-1.09c0.61-0.26,1.25-0.38,1.92-0.38c0.69,0,1.33,0.13,1.94,0.39c0.6,0.27,1.13,0.63,1.58,1.08
		c0.46,0.46,0.81,0.98,1.08,1.59C36.84,8.57,36.97,9.22,36.97,9.91z"/>
	
		<linearGradient id="SVGID_00000008149127380317427490000012871641610215848628_" gradientUnits="userSpaceOnUse" x1="10.445" y1="24.065" x2="17.855" y2="31.475">
		<stop  offset="7.955786e-07" style="stop-color:#F7F7F7"/>
		<stop  offset="0.25" style="stop-color:#F2F2F2"/>
		<stop  offset="0.4281" style="stop-color:#EDEDED"/>
		<stop  offset="0.6284" style="stop-color:#E0E0E0"/>
		<stop  offset="0.8387" style="stop-color:#C9C9C9"/>
		<stop  offset="1" style="stop-color:#B3B3B3"/>
	</linearGradient>
	<path style="display:inline;fill:url(#SVGID_00000008149127380317427490000012871641610215848628_);" d="M26,23.33l-8.98,8.98
		c-0.25,0.25-0.53,0.46-0.82,0.63c-0.29,0.16-0.59,0.3-0.91,0.41s-0.64,0.2-0.98,0.26c-0.33,0.06-0.67,0.12-1.01,0.17
		c-0.44,0.06-0.88,0.18-1.33,0.34c-0.45,0.17-0.89,0.36-1.33,0.58c-0.44,0.22-0.86,0.46-1.28,0.71c-0.42,0.25-0.81,0.49-1.19,0.71
		C8,36.23,7.85,36.3,7.71,36.35C7.57,36.4,7.4,36.42,7.2,36.42c-0.23,0-0.44-0.04-0.65-0.13c-0.2-0.09-0.38-0.21-0.53-0.36
		c-0.15-0.15-0.27-0.33-0.36-0.53c-0.08-0.2-0.13-0.42-0.13-0.65c0-0.19,0.02-0.36,0.07-0.51c0.05-0.15,0.12-0.31,0.23-0.47
		c0.24-0.39,0.48-0.79,0.73-1.2c0.25-0.41,0.48-0.83,0.7-1.27c0.21-0.43,0.4-0.87,0.56-1.31c0.16-0.44,0.27-0.9,0.34-1.37
		c0.04-0.34,0.09-0.68,0.16-1.01s0.15-0.66,0.26-0.98c0.1-0.31,0.24-0.62,0.4-0.91c0.17-0.29,0.38-0.56,0.63-0.81l8.98-8.99
		L26,23.33z"/>
	
		<linearGradient id="SVGID_00000093150022529769020060000010279793932870547610_" gradientUnits="userSpaceOnUse" x1="19.795" y1="10.705" x2="31.22" y2="22.13">
		<stop  offset="1.019972e-08" style="stop-color:#4CC2FF"/>
		<stop  offset="1" style="stop-color:#0067C0"/>
	</linearGradient>
	<path style="display:inline;fill:url(#SVGID_00000093150022529769020060000010279793932870547610_);" d="M33.17,18.92
		c0,0.4-0.07,0.78-0.22,1.15c-0.16,0.37-0.37,0.7-0.65,0.98l-2.18,2.17c-0.28,0.27-0.6,0.48-0.97,0.64S28.4,24.09,28,24.09
		c-0.37,0-0.72-0.06-1.07-0.19c-0.35-0.13-0.66-0.32-0.93-0.57l-7.41-7.41c-0.26-0.28-0.45-0.59-0.57-0.93
		c-0.13-0.34-0.19-0.69-0.19-1.07c0-0.39,0.07-0.78,0.22-1.15c0.16-0.37,0.37-0.69,0.65-0.97l2.18-2.18
		c0.28-0.28,0.6-0.49,0.97-0.64S22.6,8.75,23,8.75c0.85,0,1.57,0.3,2.16,0.91l7.07,7.06l0.07,0.08c0.29,0.32,0.51,0.65,0.65,0.97
		C33.1,18.1,33.17,18.48,33.17,18.92z"/>
</g>
<g id="Layer_2">
	<path d="M36.97,9.91c0,0.67-0.13,1.31-0.38,1.92c-0.26,0.61-0.62,1.16-1.09,1.62l-3.27,3.27l0.06,0.08
		c0.29,0.32,0.51,0.65,0.66,0.98c0.15,0.33,0.22,0.71,0.22,1.15c0,0.4-0.08,0.78-0.23,1.15c-0.15,0.37-0.37,0.7-0.65,0.98
		l-2.17,2.17c-0.28,0.27-0.61,0.48-0.98,0.64c-0.37,0.16-0.75,0.23-1.15,0.23c-0.37,0-0.72-0.07-1.07-0.2
		c-0.35-0.13-0.66-0.32-0.93-0.57l-8.98,8.98c-0.25,0.25-0.52,0.46-0.81,0.62c-0.29,0.17-0.6,0.3-0.91,0.41
		c-0.32,0.11-0.64,0.2-0.98,0.26c-0.33,0.06-0.67,0.12-1.02,0.17c-0.44,0.06-0.88,0.18-1.33,0.34c-0.45,0.17-0.89,0.36-1.33,0.58
		s-0.87,0.45-1.28,0.7c-0.42,0.25-0.81,0.49-1.19,0.72C8,36.23,7.85,36.3,7.71,36.35S7.4,36.42,7.2,36.42
		c-0.23,0-0.45-0.04-0.65-0.13s-0.38-0.21-0.53-0.36c-0.15-0.15-0.27-0.33-0.36-0.53c-0.09-0.2-0.13-0.42-0.13-0.65
		c0-0.19,0.02-0.36,0.07-0.51s0.12-0.31,0.23-0.48c0.24-0.39,0.48-0.78,0.73-1.2s0.48-0.83,0.7-1.27c0.21-0.43,0.4-0.87,0.56-1.31
		c0.16-0.44,0.27-0.9,0.34-1.37c0.04-0.34,0.1-0.68,0.16-1.02c0.07-0.33,0.15-0.66,0.26-0.98c0.1-0.32,0.24-0.62,0.41-0.91
		c0.17-0.29,0.38-0.56,0.62-0.81l8.98-8.98c-0.26-0.28-0.45-0.59-0.58-0.93c-0.12-0.34-0.19-0.7-0.19-1.07
		c0-0.4,0.08-0.78,0.23-1.15c0.15-0.37,0.37-0.7,0.65-0.98l2.17-2.17c0.28-0.28,0.61-0.5,0.98-0.65C22.22,8.83,22.6,8.75,23,8.75
		c0.85,0,1.57,0.3,2.16,0.91l3.28-3.28c0.47-0.47,1.01-0.83,1.62-1.09c0.61-0.25,1.25-0.38,1.91-0.38c0.69,0,1.33,0.13,1.94,0.4
		c0.6,0.27,1.13,0.62,1.59,1.08s0.81,0.98,1.08,1.59C36.84,8.57,36.97,9.22,36.97,9.91z M24.59,21.92L20,17.33l-8.98,8.98
		c-0.17,0.17-0.3,0.35-0.4,0.55c-0.1,0.2-0.18,0.42-0.24,0.64s-0.11,0.45-0.14,0.69s-0.06,0.46-0.09,0.68
		c-0.12,0.88-0.36,1.72-0.74,2.55c-0.38,0.82-0.79,1.61-1.23,2.36c0.76-0.45,1.54-0.86,2.34-1.23s1.64-0.62,2.52-0.76
		c0.2-0.03,0.42-0.07,0.66-0.11c0.24-0.04,0.48-0.09,0.71-0.16s0.46-0.14,0.66-0.24c0.21-0.1,0.39-0.23,0.55-0.38L24.59,21.92z
		 M31.17,18.92c0-0.27-0.1-0.5-0.3-0.7l-7.17-7.17c-0.2-0.2-0.43-0.3-0.7-0.3c-0.27,0-0.51,0.1-0.7,0.3l-2.17,2.17
		c-0.2,0.2-0.3,0.43-0.3,0.7c0,0.27,0.1,0.51,0.3,0.7l6.58,6.59c0.09,0.09,0.19,0.19,0.28,0.29c0.09,0.1,0.19,0.19,0.3,0.28
		c0.1,0.09,0.21,0.16,0.33,0.22c0.11,0.06,0.24,0.09,0.39,0.09c0.27,0,0.5-0.1,0.7-0.3l2.17-2.17
		C31.07,19.43,31.17,19.19,31.17,18.92z M34.97,9.91c0-0.42-0.08-0.81-0.23-1.17c-0.16-0.36-0.37-0.68-0.64-0.95
		c-0.27-0.27-0.59-0.48-0.95-0.63C32.78,7,32.38,6.92,31.97,6.92c-0.4,0-0.78,0.08-1.15,0.23c-0.37,0.15-0.7,0.37-0.98,0.65
		l-3.27,3.27l4.23,4.25l3.28-3.28c0.28-0.28,0.5-0.61,0.65-0.98C34.89,10.69,34.97,10.3,34.97,9.91z"/>
</g>
</svg>
