<?xml version="1.0" encoding="utf-8"?>
<!-- Generator: Adobe Illustrator 27.1.1, SVG Export Plug-In . SVG Version: 6.00 Build 0)  -->
<svg version="1.1" xmlns="http://www.w3.org/2000/svg" xmlns:xlink="http://www.w3.org/1999/xlink" x="0px" y="0px"
	 viewBox="0 0 42 42" style="enable-background:new 0 0 42 42;" xml:space="preserve">
<style type="text/css">
	.st0{fill:url(#SVGID_1_);}
	.st1{fill:url(#SVGID_00000068635208557843793430000004042291103288037806_);}
	.st2{fill:url(#SVGID_00000131326981295955937690000017622655265105640608_);}
	.st3{fill:url(#SVGID_00000083047431616495495660000012893301830988209333_);}
	.st4{fill:url(#SVGID_00000140008531432513843730000007399811742632627331_);}
	.st5{fill:url(#SVGID_00000088838042982266965000000000136311955688380820_);}
	.st6{display:none;}
</style>
<g id="Layer_1">
	<linearGradient id="SVGID_1_" gradientUnits="userSpaceOnUse" x1="10.8954" y1="8.4734" x2="34.4686" y2="32.0466">
		<stop  offset="7.955786e-07" style="stop-color:#F7F7F7"/>
		<stop  offset="0.25" style="stop-color:#F2F2F2"/>
		<stop  offset="0.4281" style="stop-color:#EDEDED"/>
		<stop  offset="0.6284" style="stop-color:#E0E0E0"/>
		<stop  offset="0.8387" style="stop-color:#C9C9C9"/>
		<stop  offset="1" style="stop-color:#B3B3B3"/>
	</linearGradient>
	<path class="st0" d="M36.39,17.22c-0.41-1.47-1-2.85-1.77-4.12c-0.78-1.27-1.73-2.43-2.85-3.47c-1.12-1.04-2.39-1.95-3.82-2.73
		c-1.16-0.63-2.39-1.11-3.67-1.45C23,5.1,21.7,4.93,20.38,4.93c-1.4,0-2.76,0.2-4.09,0.59c-1.33,0.4-2.58,0.97-3.76,1.72
		c-0.69,0.44-1.32,0.94-1.89,1.49c-0.57,0.56-1.11,1.15-1.62,1.78c-0.57,0.69-1.09,1.41-1.57,2.17c-0.48,0.76-0.9,1.55-1.26,2.36
		c-0.34,0.75-0.62,1.54-0.85,2.37C5.11,18.23,5,19.07,5,19.9c0,0.83,0.15,1.61,0.44,2.32c0.29,0.71,0.75,1.35,1.39,1.9
		c0.47,0.4,0.99,0.76,1.58,1.08c0.58,0.31,1.19,0.46,1.84,0.46c0.48,0,0.92-0.09,1.31-0.28c0.4-0.18,0.78-0.39,1.15-0.62
		c0.37-0.23,0.75-0.44,1.13-0.63c0.39-0.18,0.82-0.28,1.28-0.28c0.17,0,0.35,0.02,0.54,0.04c0.2,0.03,0.39,0.07,0.57,0.12
		c0.19,0.05,0.37,0.12,0.54,0.22c0.16,0.09,0.3,0.2,0.42,0.32c0.11,0.12,0.19,0.27,0.25,0.44c0.05,0.18,0.1,0.35,0.14,0.5
		c0.13,0.56,0.21,1.13,0.22,1.71c0.02,0.57,0.05,1.14,0.09,1.71c0.06,0.95,0.21,1.82,0.43,2.61c0.22,0.8,0.55,1.51,0.98,2.14
		c0.44,0.64,0.98,1.2,1.64,1.68c0.65,0.48,1.44,0.88,2.36,1.2c0.43,0.16,0.88,0.28,1.33,0.36c0.46,0.08,0.92,0.12,1.39,0.12
		c0.84,0,1.64-0.12,2.41-0.37s1.48-0.6,2.16-1.03c0.67-0.44,1.29-0.96,1.86-1.56c0.58-0.6,1.1-1.24,1.57-1.92
		c0.46-0.68,0.87-1.39,1.22-2.14c0.35-0.74,0.64-1.49,0.87-2.23c0.29-0.95,0.51-1.93,0.66-2.91c0.15-0.98,0.23-1.98,0.23-2.98
		C37,20.25,36.8,18.69,36.39,17.22z"/>
	
		<linearGradient id="SVGID_00000172437121222663084730000012711580524302330535_" gradientUnits="userSpaceOnUse" x1="24.5633" y1="26.8631" x2="27.4359" y2="30.9656">
		<stop  offset="1.019972e-08" style="stop-color:#4CC2FF"/>
		<stop  offset="1" style="stop-color:#0067C0"/>
	</linearGradient>
	<path style="fill:url(#SVGID_00000172437121222663084730000012711580524302330535_);" d="M26,26.41c-0.68,0-1.29,0.25-1.77,0.73
		s-0.73,1.09-0.73,1.77c0,0.68,0.25,1.29,0.73,1.77c0.48,0.48,1.09,0.73,1.77,0.73c0.68,0,1.29-0.25,1.77-0.73s0.73-1.09,0.73-1.77
		c0-0.68-0.25-1.29-0.73-1.77C27.29,26.67,26.68,26.41,26,26.41z"/>
	
		<linearGradient id="SVGID_00000151537176977119101630000001373363810585027503_" gradientUnits="userSpaceOnUse" x1="28.0058" y1="21.9198" x2="31.9513" y2="25.0024">
		<stop  offset="6.119835e-07" style="stop-color:#FBE922"/>
		<stop  offset="1" style="stop-color:#ECB01B"/>
	</linearGradient>
	<path style="fill:url(#SVGID_00000151537176977119101630000001373363810585027503_);" d="M29.98,20.96c-0.68,0-1.29,0.25-1.77,0.73
		s-0.73,1.09-0.73,1.77c0,0.68,0.25,1.29,0.73,1.77c0.48,0.48,1.09,0.73,1.77,0.73c0.68,0,1.29-0.25,1.77-0.73s0.73-1.09,0.73-1.77
		c0-0.68-0.25-1.29-0.73-1.77C31.27,21.21,30.66,20.96,29.98,20.96z"/>
	
		<linearGradient id="SVGID_00000086687138397460540860000013256347185828835987_" gradientUnits="userSpaceOnUse" x1="26.5178" y1="15.5538" x2="31.0592" y2="17.6715">
		<stop  offset="1.019972e-08" style="stop-color:#21C9B5"/>
		<stop  offset="1" style="stop-color:#0C8F80"/>
	</linearGradient>
	<path style="fill:url(#SVGID_00000086687138397460540860000013256347185828835987_);" d="M28.79,19.11c0.68,0,1.29-0.25,1.77-0.73
		s0.73-1.09,0.73-1.77c0-0.68-0.25-1.29-0.73-1.77c-0.48-0.48-1.09-0.73-1.77-0.73c-0.68,0-1.29,0.25-1.77,0.73
		s-0.73,1.09-0.73,1.77c0,0.68,0.25,1.29,0.73,1.77C27.49,18.86,28.11,19.11,28.79,19.11z"/>
	
		<linearGradient id="SVGID_00000106861572683301189000000009145972508773649586_" gradientUnits="userSpaceOnUse" x1="20.9214" y1="11.8422" x2="25.6581" y2="13.4732">
		<stop  offset="6.119835e-07" style="stop-color:#FBB022"/>
		<stop  offset="1" style="stop-color:#EC6E1B"/>
	</linearGradient>
	<path style="fill:url(#SVGID_00000106861572683301189000000009145972508773649586_);" d="M25.79,12.66c0-0.68-0.25-1.29-0.73-1.77
		c-0.48-0.48-1.09-0.73-1.77-0.73c-0.68,0-1.29,0.25-1.77,0.73s-0.73,1.09-0.73,1.77c0,0.68,0.25,1.29,0.73,1.77
		c0.48,0.48,1.09,0.73,1.77,0.73c0.68,0,1.29-0.25,1.77-0.73S25.79,13.34,25.79,12.66z"/>
	
		<linearGradient id="SVGID_00000145037878227844691940000003205419563759210654_" gradientUnits="userSpaceOnUse" x1="14.4599" y1="11.9501" x2="18.0603" y2="15.4268">
		<stop  offset="1.019972e-08" style="stop-color:#FF644C"/>
		<stop  offset="1" style="stop-color:#C02300"/>
	</linearGradient>
	<path style="fill:url(#SVGID_00000145037878227844691940000003205419563759210654_);" d="M16.26,11.19c-0.68,0-1.29,0.25-1.77,0.73
		s-0.73,1.09-0.73,1.77c0,0.68,0.25,1.29,0.73,1.77c0.48,0.48,1.09,0.73,1.77,0.73c0.68,0,1.29-0.25,1.77-0.73s0.73-1.09,0.73-1.77
		c0-0.68-0.25-1.29-0.73-1.77C17.55,11.44,16.94,11.19,16.26,11.19z"/>
</g>
<g id="Layer_2">
	<path class="st6" d="M36.39,17.22c-0.41-1.47-1-2.85-1.77-4.12c-0.78-1.27-1.73-2.43-2.85-3.47c-1.12-1.04-2.39-1.95-3.82-2.73
		c-1.16-0.63-2.39-1.11-3.67-1.45C23,5.1,21.7,4.93,20.38,4.93c-1.4,0-2.76,0.2-4.09,0.59c-1.33,0.4-2.58,0.97-3.76,1.72
		c-0.69,0.44-1.32,0.94-1.89,1.49c-0.57,0.56-1.11,1.15-1.62,1.78c-0.57,0.69-1.09,1.41-1.57,2.17c-0.48,0.76-0.9,1.55-1.26,2.36
		c-0.34,0.75-0.62,1.54-0.85,2.37C5.11,18.23,5,19.07,5,19.9c0,0.83,0.15,1.61,0.44,2.32c0.29,0.71,0.75,1.35,1.39,1.9
		c0.47,0.4,0.99,0.76,1.58,1.08c0.58,0.31,1.19,0.46,1.84,0.46c0.48,0,0.92-0.09,1.31-0.28c0.4-0.18,0.78-0.39,1.15-0.62
		c0.37-0.23,0.75-0.44,1.13-0.63c0.39-0.18,0.82-0.28,1.28-0.28c0.17,0,0.35,0.02,0.54,0.04c0.2,0.03,0.39,0.07,0.57,0.12
		c0.19,0.05,0.37,0.12,0.54,0.22c0.16,0.09,0.3,0.2,0.42,0.32c0.11,0.12,0.19,0.27,0.25,0.44c0.05,0.18,0.1,0.35,0.14,0.5
		c0.13,0.56,0.21,1.13,0.22,1.71c0.02,0.57,0.05,1.14,0.09,1.71c0.06,0.95,0.21,1.82,0.43,2.61c0.22,0.8,0.55,1.51,0.98,2.14
		c0.44,0.64,0.98,1.2,1.64,1.68c0.65,0.48,1.44,0.88,2.36,1.2c0.43,0.16,0.88,0.28,1.33,0.36c0.46,0.08,0.92,0.12,1.39,0.12
		c0.84,0,1.64-0.12,2.41-0.37s1.48-0.6,2.16-1.03c0.67-0.44,1.29-0.96,1.86-1.56c0.58-0.6,1.1-1.24,1.57-1.92
		c0.46-0.68,0.87-1.39,1.22-2.14c0.35-0.74,0.64-1.49,0.87-2.23c0.29-0.95,0.51-1.93,0.66-2.91c0.15-0.98,0.23-1.98,0.23-2.98
		C37,20.25,36.8,18.69,36.39,17.22z M34.73,24.97c-0.18,1.09-0.48,2.15-0.87,3.17c-0.4,1.03-0.9,1.99-1.5,2.9
		c-0.61,0.91-1.32,1.69-2.14,2.36c-0.61,0.49-1.26,0.88-1.97,1.18c-0.71,0.3-1.45,0.44-2.23,0.44c-0.7,0-1.39-0.12-2.05-0.36
		c-0.9-0.31-1.61-0.7-2.14-1.18c-0.53-0.48-0.94-1.01-1.22-1.59c-0.28-0.58-0.47-1.19-0.57-1.84c-0.1-0.64-0.17-1.29-0.2-1.93
		c-0.04-0.65-0.08-1.28-0.12-1.9c-0.04-0.62-0.15-1.19-0.32-1.72c-0.17-0.53-0.44-0.99-0.81-1.4c-0.36-0.4-0.88-0.72-1.56-0.94
		c-0.3-0.09-0.61-0.16-0.94-0.22c-0.32-0.06-0.64-0.09-0.97-0.09c-0.59,0-1.13,0.1-1.6,0.29c-0.48,0.19-0.92,0.4-1.32,0.63
		c-0.41,0.22-0.77,0.43-1.11,0.62c-0.33,0.19-0.64,0.29-0.93,0.29c-0.16,0-0.33-0.04-0.52-0.12s-0.37-0.17-0.56-0.28
		c-0.19-0.11-0.37-0.23-0.54-0.35c-0.17-0.13-0.32-0.24-0.43-0.34c-0.41-0.37-0.69-0.77-0.86-1.21C7.08,20.93,7,20.44,7,19.9
		c0-0.71,0.1-1.4,0.29-2.08s0.43-1.33,0.73-1.97c0.56-1.26,1.25-2.43,2.07-3.52c0.83-1.09,1.76-2.04,2.8-2.85
		c1.04-0.8,2.19-1.44,3.45-1.89c1.25-0.46,2.6-0.69,4.04-0.69c1.16,0,2.31,0.15,3.43,0.47c1.13,0.31,2.19,0.74,3.21,1.29
		c1.26,0.69,2.38,1.49,3.37,2.39c0.99,0.91,1.83,1.92,2.52,3.03c0.68,1.11,1.21,2.31,1.57,3.6c0.36,1.29,0.54,2.66,0.54,4.11
		C35.02,22.82,34.92,23.88,34.73,24.97z M26,31.41c-0.68,0-1.29-0.25-1.77-0.73c-0.48-0.47-0.73-1.09-0.73-1.77
		c0-0.68,0.25-1.29,0.73-1.77s1.09-0.73,1.77-0.73c0.68,0,1.29,0.25,1.77,0.73c0.48,0.48,0.73,1.09,0.73,1.77
		c0,0.68-0.25,1.29-0.73,1.77S26.68,31.41,26,31.41z M29.98,25.96c-0.68,0-1.29-0.25-1.77-0.73c-0.48-0.47-0.73-1.09-0.73-1.77
		c0-0.68,0.25-1.29,0.73-1.77s1.09-0.73,1.77-0.73c0.68,0,1.29,0.25,1.77,0.73c0.48,0.48,0.73,1.09,0.73,1.77
		c0,0.68-0.25,1.29-0.73,1.77C31.27,25.71,30.66,25.96,29.98,25.96z M28.79,19.11c-0.68,0-1.29-0.25-1.77-0.73
		c-0.48-0.47-0.73-1.09-0.73-1.77c0-0.68,0.25-1.29,0.73-1.77s1.09-0.73,1.77-0.73c0.68,0,1.29,0.25,1.77,0.73
		c0.48,0.48,0.73,1.09,0.73,1.77c0,0.68-0.25,1.29-0.73,1.77S29.47,19.11,28.79,19.11z M23.29,15.16c-0.68,0-1.29-0.25-1.77-0.73
		c-0.48-0.47-0.73-1.09-0.73-1.77c0-0.68,0.25-1.29,0.73-1.77s1.09-0.73,1.77-0.73c0.68,0,1.29,0.25,1.77,0.73
		c0.48,0.48,0.73,1.09,0.73,1.77c0,0.68-0.25,1.29-0.73,1.77S23.97,15.16,23.29,15.16z M16.26,16.19c-0.68,0-1.29-0.25-1.77-0.73
		c-0.48-0.47-0.73-1.09-0.73-1.77c0-0.68,0.25-1.29,0.73-1.77s1.09-0.73,1.77-0.73c0.68,0,1.29,0.25,1.77,0.73
		c0.48,0.48,0.73,1.09,0.73,1.77c0,0.68-0.25,1.29-0.73,1.77S16.94,16.19,16.26,16.19z"/>
</g>
</svg>
